<?xml version="1.0" encoding="UTF-8"?>
<svg xmlns="http://www.w3.org/2000/svg" xmlns:xlink="http://www.w3.org/1999/xlink" width="48pt" height="48pt" viewBox="0 0 48 48" version="1.1">
<g id="surface357642">
<path style=" stroke:none;fill-rule:nonzero;fill:rgb(100%,100%,100%);fill-opacity:1;" d="M 24 0.347656 C 10.941406 0.347656 0.347656 10.941406 0.347656 24 C 0.347656 37.058594 10.941406 47.652344 24 47.652344 C 37.058594 47.652344 47.652344 37.058594 47.652344 24 C 47.652344 10.941406 37.058594 0.347656 24 0.347656 Z M 24 4.039062 C 35.003906 4.039062 43.960938 12.996094 43.960938 24 C 43.960938 24.867188 43.898438 25.703125 43.789062 26.539062 C 43.421875 26.445312 42.265625 26.148438 41.019531 26.132812 C 39.902344 26.121094 38.558594 26.308594 37.847656 26.421875 C 38.035156 25.660156 38.191406 24.84375 38.191406 24 C 38.191406 21.894531 37.398438 19.847656 36 18.117188 C 36.519531 16.484375 37.242188 12.777344 35.828125 11.367188 C 32.367188 11.367188 30.417969 13.566406 30.058594 14.019531 C 28.472656 13.441406 26.753906 13.152344 24.921875 13.152344 C 23.132812 13.152344 21.402344 13.414062 19.847656 13.960938 C 19.363281 13.378906 17.453125 11.367188 14.132812 11.367188 C 12.75 12.75 13.441406 16.320312 13.960938 18 C 12.496094 19.757812 11.652344 21.84375 11.652344 24 C 11.652344 24.792969 11.71875 25.585938 11.882812 26.308594 C 11.277344 26.257812 8.820312 26.078125 7.847656 26.078125 C 6.871094 26.078125 5.273438 26.285156 4.210938 26.539062 C 4.101562 25.703125 4.039062 24.867188 4.039062 24 C 4.039062 12.996094 12.996094 4.039062 24 4.039062 Z M 7.847656 26.539062 C 8.804688 26.539062 11.761719 26.804688 12.058594 26.828125 C 12.109375 27 12.164062 27.171875 12.230469 27.347656 C 11.257812 27.265625 9.171875 27.128906 7.847656 27.289062 C 6.222656 27.484375 5.027344 28.125 4.558594 28.382812 C 4.457031 27.929688 4.339844 27.460938 4.269531 27 C 5.285156 26.761719 6.945312 26.539062 7.847656 26.539062 Z M 41.019531 26.597656 C 42.230469 26.609375 43.421875 26.871094 43.730469 26.941406 C 43.703125 27.152344 43.652344 27.367188 43.617188 27.578125 C 43.457031 27.535156 42.015625 27.09375 40.5 27.058594 C 39.757812 27.035156 38.582031 27.160156 37.671875 27.230469 C 37.714844 27.117188 37.753906 27 37.789062 26.882812 C 38.414062 26.796875 39.910156 26.582031 41.019531 26.597656 Z M 40.441406 27.519531 C 41.914062 27.554688 43.472656 28.015625 43.558594 28.039062 C 42.195312 34.664062 37.542969 40.058594 31.382812 42.519531 L 31.382812 39.347656 C 31.382812 37.347656 30.195312 34.753906 28.5 33.460938 C 33.273438 32.777344 36.246094 30.664062 37.5 27.691406 C 38.359375 27.621094 39.671875 27.496094 40.441406 27.519531 Z M 9.347656 27.691406 C 10.664062 27.699219 11.847656 27.765625 12.402344 27.808594 C 13.6875 30.714844 16.636719 32.785156 21.347656 33.460938 C 20.8125 33.871094 20.316406 34.40625 19.902344 35.019531 C 19.890625 35.039062 19.859375 35.054688 19.847656 35.078125 C 18.921875 36.1875 17.191406 36.117188 15.578125 36.117188 C 13.925781 36.117188 12.9375 34.796875 12.058594 33.632812 C 11.171875 32.480469 10.015625 32.378906 9.402344 32.308594 C 8.789062 32.242188 8.625 32.554688 8.941406 32.769531 C 10.738281 34.03125 11.445312 35.574219 12.171875 36.921875 C 12.828125 38.132812 14.179688 38.769531 15.691406 38.769531 L 18.519531 38.769531 C 18.496094 38.957031 18.460938 39.164062 18.460938 39.347656 L 18.460938 43.152344 C 11.660156 41.191406 6.398438 35.742188 4.671875 28.847656 C 5.035156 28.644531 6.304688 27.9375 7.902344 27.75 C 8.285156 27.707031 8.796875 27.691406 9.347656 27.691406 Z M 24.921875 38.769531 C 25.433594 38.769531 25.847656 39.179688 25.847656 39.691406 L 25.847656 43.847656 C 25.234375 43.902344 24.628906 43.960938 24 43.960938 L 24 39.691406 C 24 39.179688 24.410156 38.769531 24.921875 38.769531 Z M 21.230469 39.867188 C 21.742188 39.867188 22.152344 40.277344 22.152344 40.789062 L 22.152344 43.847656 C 21.539062 43.789062 20.90625 43.722656 20.308594 43.617188 L 20.308594 40.789062 C 20.308594 40.277344 20.71875 39.867188 21.230469 39.867188 Z M 28.617188 39.867188 C 29.128906 39.867188 29.539062 40.277344 29.539062 40.789062 L 29.539062 43.152344 C 28.933594 43.328125 28.320312 43.5 27.691406 43.617188 L 27.691406 40.789062 C 27.691406 40.277344 28.101562 39.867188 28.617188 39.867188 Z M 28.617188 39.867188 "/>
</g>
</svg>
